<?xml version="1.0" encoding="UTF-8" standalone="no"?><!DOCTYPE svg PUBLIC "-//W3C//DTD SVG 1.1//EN" "http://www.w3.org/Graphics/SVG/1.1/DTD/svg11.dtd"><svg width="100%" height="100%" viewBox="0 0 20 20" version="1.1" xmlns="http://www.w3.org/2000/svg" xmlns:xlink="http://www.w3.org/1999/xlink" xml:space="preserve" style="fill-rule:evenodd;clip-rule:evenodd;stroke-linejoin:round;stroke-miterlimit:1.41421;"><path d="M1.244,0l1.244,0l0,19.996l-1.244,0c-0.686,0 -1.244,-0.558 -1.244,-1.245l0,-17.507c0,-0.686 0.557,-1.244 1.244,-1.244Zm7.51,9.998l0,-8.754c0,-0.686 0.557,-1.244 1.244,-1.244l8.753,0c0.687,0 1.245,0.558 1.245,1.244l0,17.507c0,0.687 -0.558,1.245 -1.245,1.245l-1.244,0l-15.019,0l0,-2.489l15.019,0l0,-15.019l-6.265,0l0,7.51l3.696,0l-4.94,4.94l-4.94,-4.94l3.696,0Z" style="fill:#1d1d1d;"/></svg>